<mxfile host="app.diagrams.net" agent="Mozilla/5.0 (Windows NT 10.0; Win64; x64) AppleWebKit/537.36 (KHTML, like Gecko) Chrome/129.0.0.0 Safari/537.36" version="24.8.9">
  <diagram id="C5RBs43oDa-KdzZeNtuy" name="Page-1">
    <mxGraphModel grid="1" page="1" gridSize="10" guides="1" tooltips="1" connect="1" arrows="1" fold="1" pageScale="1" pageWidth="827" pageHeight="1169" math="0" shadow="0">
      <root>
        <mxCell id="WIyWlLk6GJQsqaUBKTNV-0" />
        <mxCell id="WIyWlLk6GJQsqaUBKTNV-1" parent="WIyWlLk6GJQsqaUBKTNV-0" />
        <mxCell id="0XuoHmTmuoI8u-uit2Qc-1" value="" style="edgeStyle=orthogonalEdgeStyle;rounded=0;orthogonalLoop=1;jettySize=auto;html=1;" edge="1" parent="WIyWlLk6GJQsqaUBKTNV-1" source="WIyWlLk6GJQsqaUBKTNV-3" target="0XuoHmTmuoI8u-uit2Qc-0">
          <mxGeometry relative="1" as="geometry" />
        </mxCell>
        <mxCell id="WIyWlLk6GJQsqaUBKTNV-3" value="Start" style="rounded=1;whiteSpace=wrap;html=1;fontSize=12;glass=0;strokeWidth=1;shadow=0;" vertex="1" parent="WIyWlLk6GJQsqaUBKTNV-1">
          <mxGeometry x="160" y="10" width="120" height="40" as="geometry" />
        </mxCell>
        <mxCell id="t8ofnYkAU3TJIeARBMsP-2" value="" style="edgeStyle=orthogonalEdgeStyle;rounded=0;orthogonalLoop=1;jettySize=auto;html=1;" edge="1" parent="WIyWlLk6GJQsqaUBKTNV-1" source="0XuoHmTmuoI8u-uit2Qc-0" target="t8ofnYkAU3TJIeARBMsP-1">
          <mxGeometry relative="1" as="geometry" />
        </mxCell>
        <mxCell id="0XuoHmTmuoI8u-uit2Qc-0" value="Ініціалізація a b c, вектора і змінних для варіативних аргументів" style="rounded=0;whiteSpace=wrap;html=1;" vertex="1" parent="WIyWlLk6GJQsqaUBKTNV-1">
          <mxGeometry x="160" y="70" width="120" height="60" as="geometry" />
        </mxCell>
        <mxCell id="0XuoHmTmuoI8u-uit2Qc-5" value="" style="edgeStyle=orthogonalEdgeStyle;rounded=0;orthogonalLoop=1;jettySize=auto;html=1;" edge="1" parent="WIyWlLk6GJQsqaUBKTNV-1" source="0XuoHmTmuoI8u-uit2Qc-2" target="0XuoHmTmuoI8u-uit2Qc-4">
          <mxGeometry relative="1" as="geometry" />
        </mxCell>
        <mxCell id="0XuoHmTmuoI8u-uit2Qc-2" value="функція canForTriangle перевіряє умову трикутників і видає&amp;nbsp; bool&amp;nbsp;" style="shape=process;whiteSpace=wrap;html=1;backgroundOutline=1;" vertex="1" parent="WIyWlLk6GJQsqaUBKTNV-1">
          <mxGeometry x="140" y="220" width="160" height="80" as="geometry" />
        </mxCell>
        <mxCell id="0XuoHmTmuoI8u-uit2Qc-7" value="" style="edgeStyle=orthogonalEdgeStyle;rounded=0;orthogonalLoop=1;jettySize=auto;html=1;" edge="1" parent="WIyWlLk6GJQsqaUBKTNV-1" source="0XuoHmTmuoI8u-uit2Qc-4" target="0XuoHmTmuoI8u-uit2Qc-6">
          <mxGeometry relative="1" as="geometry" />
        </mxCell>
        <mxCell id="0XuoHmTmuoI8u-uit2Qc-4" value="" style="strokeWidth=2;html=1;shape=mxgraph.flowchart.loop_limit;whiteSpace=wrap;" vertex="1" parent="WIyWlLk6GJQsqaUBKTNV-1">
          <mxGeometry x="150" y="330" width="140" height="60" as="geometry" />
        </mxCell>
        <mxCell id="0XuoHmTmuoI8u-uit2Qc-9" value="" style="edgeStyle=orthogonalEdgeStyle;rounded=0;orthogonalLoop=1;jettySize=auto;html=1;" edge="1" parent="WIyWlLk6GJQsqaUBKTNV-1" source="0XuoHmTmuoI8u-uit2Qc-6" target="0XuoHmTmuoI8u-uit2Qc-8">
          <mxGeometry relative="1" as="geometry" />
        </mxCell>
        <mxCell id="0XuoHmTmuoI8u-uit2Qc-6" value="за допомогою стандартної бібліотеки cstdarg бере значення з варіативної змінної і вносить його в вектор" style="whiteSpace=wrap;html=1;strokeWidth=2;" vertex="1" parent="WIyWlLk6GJQsqaUBKTNV-1">
          <mxGeometry x="120" y="410" width="200" height="60" as="geometry" />
        </mxCell>
        <mxCell id="0XuoHmTmuoI8u-uit2Qc-21" value="" style="edgeStyle=orthogonalEdgeStyle;rounded=0;orthogonalLoop=1;jettySize=auto;html=1;" edge="1" parent="WIyWlLk6GJQsqaUBKTNV-1" source="0XuoHmTmuoI8u-uit2Qc-10" target="0XuoHmTmuoI8u-uit2Qc-11">
          <mxGeometry relative="1" as="geometry" />
        </mxCell>
        <mxCell id="0XuoHmTmuoI8u-uit2Qc-24" value="" style="edgeStyle=orthogonalEdgeStyle;rounded=0;orthogonalLoop=1;jettySize=auto;html=1;" edge="1" parent="WIyWlLk6GJQsqaUBKTNV-1" source="0XuoHmTmuoI8u-uit2Qc-8" target="0XuoHmTmuoI8u-uit2Qc-23">
          <mxGeometry relative="1" as="geometry" />
        </mxCell>
        <mxCell id="0XuoHmTmuoI8u-uit2Qc-8" value="" style="strokeWidth=2;html=1;shape=mxgraph.flowchart.loop_limit;whiteSpace=wrap;rotation=-180;" vertex="1" parent="WIyWlLk6GJQsqaUBKTNV-1">
          <mxGeometry x="150" y="490" width="140" height="60" as="geometry" />
        </mxCell>
        <mxCell id="0XuoHmTmuoI8u-uit2Qc-12" value="" style="edgeStyle=orthogonalEdgeStyle;rounded=0;orthogonalLoop=1;jettySize=auto;html=1;" edge="1" parent="WIyWlLk6GJQsqaUBKTNV-1" source="0XuoHmTmuoI8u-uit2Qc-10" target="0XuoHmTmuoI8u-uit2Qc-11">
          <mxGeometry relative="1" as="geometry" />
        </mxCell>
        <mxCell id="0XuoHmTmuoI8u-uit2Qc-14" value="" style="edgeStyle=orthogonalEdgeStyle;rounded=0;orthogonalLoop=1;jettySize=auto;html=1;" edge="1" parent="WIyWlLk6GJQsqaUBKTNV-1" source="0XuoHmTmuoI8u-uit2Qc-11" target="0XuoHmTmuoI8u-uit2Qc-13">
          <mxGeometry relative="1" as="geometry" />
        </mxCell>
        <mxCell id="0XuoHmTmuoI8u-uit2Qc-11" value="бере елементи з вектора так шоб a b c були як послідовні" style="whiteSpace=wrap;html=1;strokeWidth=2;" vertex="1" parent="WIyWlLk6GJQsqaUBKTNV-1">
          <mxGeometry x="160" y="730" width="120" height="60" as="geometry" />
        </mxCell>
        <mxCell id="0XuoHmTmuoI8u-uit2Qc-16" value="" style="edgeStyle=orthogonalEdgeStyle;rounded=0;orthogonalLoop=1;jettySize=auto;html=1;" edge="1" parent="WIyWlLk6GJQsqaUBKTNV-1" source="0XuoHmTmuoI8u-uit2Qc-13" target="0XuoHmTmuoI8u-uit2Qc-15">
          <mxGeometry relative="1" as="geometry" />
        </mxCell>
        <mxCell id="0XuoHmTmuoI8u-uit2Qc-20" value="" style="edgeStyle=orthogonalEdgeStyle;rounded=0;orthogonalLoop=1;jettySize=auto;html=1;" edge="1" parent="WIyWlLk6GJQsqaUBKTNV-1" source="0XuoHmTmuoI8u-uit2Qc-13" target="0XuoHmTmuoI8u-uit2Qc-19">
          <mxGeometry relative="1" as="geometry" />
        </mxCell>
        <mxCell id="0XuoHmTmuoI8u-uit2Qc-27" value="" style="edgeStyle=orthogonalEdgeStyle;rounded=0;orthogonalLoop=1;jettySize=auto;html=1;" edge="1" parent="WIyWlLk6GJQsqaUBKTNV-1" source="0XuoHmTmuoI8u-uit2Qc-13" target="0XuoHmTmuoI8u-uit2Qc-26">
          <mxGeometry relative="1" as="geometry" />
        </mxCell>
        <mxCell id="0XuoHmTmuoI8u-uit2Qc-13" value="canFormTriangle = true" style="rhombus;whiteSpace=wrap;html=1;strokeWidth=2;" vertex="1" parent="WIyWlLk6GJQsqaUBKTNV-1">
          <mxGeometry x="145" y="820" width="150" height="80" as="geometry" />
        </mxCell>
        <mxCell id="0XuoHmTmuoI8u-uit2Qc-15" value="Вивести елементи і написати так" style="shape=parallelogram;perimeter=parallelogramPerimeter;whiteSpace=wrap;html=1;fixedSize=1;strokeWidth=2;" vertex="1" parent="WIyWlLk6GJQsqaUBKTNV-1">
          <mxGeometry x="310" y="830" width="150" height="60" as="geometry" />
        </mxCell>
        <mxCell id="0XuoHmTmuoI8u-uit2Qc-17" value="так" style="text;html=1;align=center;verticalAlign=middle;resizable=0;points=[];autosize=1;strokeColor=none;fillColor=none;" vertex="1" parent="WIyWlLk6GJQsqaUBKTNV-1">
          <mxGeometry x="280" y="828" width="40" height="30" as="geometry" />
        </mxCell>
        <mxCell id="0XuoHmTmuoI8u-uit2Qc-18" value="ні" style="text;html=1;align=center;verticalAlign=middle;resizable=0;points=[];autosize=1;strokeColor=none;fillColor=none;" vertex="1" parent="WIyWlLk6GJQsqaUBKTNV-1">
          <mxGeometry x="125" y="828" width="30" height="30" as="geometry" />
        </mxCell>
        <mxCell id="0XuoHmTmuoI8u-uit2Qc-19" value="Вивести елементи і написати ні" style="shape=parallelogram;perimeter=parallelogramPerimeter;whiteSpace=wrap;html=1;fixedSize=1;strokeWidth=2;" vertex="1" parent="WIyWlLk6GJQsqaUBKTNV-1">
          <mxGeometry x="-10" y="830" width="140" height="60" as="geometry" />
        </mxCell>
        <mxCell id="0XuoHmTmuoI8u-uit2Qc-22" value="" style="edgeStyle=orthogonalEdgeStyle;rounded=0;orthogonalLoop=1;jettySize=auto;html=1;" edge="1" parent="WIyWlLk6GJQsqaUBKTNV-1" target="0XuoHmTmuoI8u-uit2Qc-10">
          <mxGeometry relative="1" as="geometry">
            <mxPoint x="220" y="630" as="sourcePoint" />
            <mxPoint x="220" y="730" as="targetPoint" />
          </mxGeometry>
        </mxCell>
        <mxCell id="0XuoHmTmuoI8u-uit2Qc-10" value="" style="strokeWidth=2;html=1;shape=mxgraph.flowchart.loop_limit;whiteSpace=wrap;" vertex="1" parent="WIyWlLk6GJQsqaUBKTNV-1">
          <mxGeometry x="170" y="640" width="100" height="60" as="geometry" />
        </mxCell>
        <mxCell id="0XuoHmTmuoI8u-uit2Qc-25" value="" style="edgeStyle=orthogonalEdgeStyle;rounded=0;orthogonalLoop=1;jettySize=auto;html=1;" edge="1" parent="WIyWlLk6GJQsqaUBKTNV-1" source="0XuoHmTmuoI8u-uit2Qc-23" target="0XuoHmTmuoI8u-uit2Qc-10">
          <mxGeometry relative="1" as="geometry" />
        </mxCell>
        <mxCell id="0XuoHmTmuoI8u-uit2Qc-23" value="далі іде опис функції triangle" style="shape=process;whiteSpace=wrap;html=1;backgroundOutline=1;" vertex="1" parent="WIyWlLk6GJQsqaUBKTNV-1">
          <mxGeometry x="160" y="560" width="120" height="60" as="geometry" />
        </mxCell>
        <mxCell id="t8ofnYkAU3TJIeARBMsP-0" value="" style="edgeStyle=orthogonalEdgeStyle;rounded=0;orthogonalLoop=1;jettySize=auto;html=1;" edge="1" parent="WIyWlLk6GJQsqaUBKTNV-1" source="0XuoHmTmuoI8u-uit2Qc-26" target="0XuoHmTmuoI8u-uit2Qc-30">
          <mxGeometry relative="1" as="geometry" />
        </mxCell>
        <mxCell id="0XuoHmTmuoI8u-uit2Qc-26" value="" style="strokeWidth=2;html=1;shape=mxgraph.flowchart.loop_limit;whiteSpace=wrap;rotation=-180;" vertex="1" parent="WIyWlLk6GJQsqaUBKTNV-1">
          <mxGeometry x="170" y="920" width="100" height="60" as="geometry" />
        </mxCell>
        <mxCell id="0XuoHmTmuoI8u-uit2Qc-30" value="End" style="rounded=1;whiteSpace=wrap;html=1;strokeWidth=2;" vertex="1" parent="WIyWlLk6GJQsqaUBKTNV-1">
          <mxGeometry x="160" y="1010" width="120" height="60" as="geometry" />
        </mxCell>
        <mxCell id="t8ofnYkAU3TJIeARBMsP-3" value="" style="edgeStyle=orthogonalEdgeStyle;rounded=0;orthogonalLoop=1;jettySize=auto;html=1;" edge="1" parent="WIyWlLk6GJQsqaUBKTNV-1" source="t8ofnYkAU3TJIeARBMsP-1" target="0XuoHmTmuoI8u-uit2Qc-2">
          <mxGeometry relative="1" as="geometry" />
        </mxCell>
        <mxCell id="t8ofnYkAU3TJIeARBMsP-1" value="Викликаєм функцію з 3 9 і 11 варіативними змінними" style="rounded=0;whiteSpace=wrap;html=1;" vertex="1" parent="WIyWlLk6GJQsqaUBKTNV-1">
          <mxGeometry x="160" y="140" width="120" height="60" as="geometry" />
        </mxCell>
      </root>
    </mxGraphModel>
  </diagram>
</mxfile>
